<mxfile host="Electron" modified="2025-01-20T13:40:30.822Z" agent="Mozilla/5.0 (Macintosh; Intel Mac OS X 10_15_7) AppleWebKit/537.36 (KHTML, like Gecko) draw.io/24.5.1 Chrome/124.0.6367.207 Electron/30.0.6 Safari/537.36" etag="WljaT3PTSQcxK0_xvpRU" version="24.5.1" type="device">
  <diagram name="Страница — 1" id="p4SrB4u_OIUmGtFRNws-">
    <mxGraphModel dx="696" dy="513" grid="1" gridSize="10" guides="1" tooltips="1" connect="1" arrows="1" fold="1" page="1" pageScale="1" pageWidth="827" pageHeight="1169" math="0" shadow="0">
      <root>
        <mxCell id="0" />
        <mxCell id="1" parent="0" />
        <mxCell id="zLtoH_G0fbc1IxBOTJKg-1" value="АС ЗадачиМанаджер" style="rounded=0;whiteSpace=wrap;html=1;verticalAlign=top;" vertex="1" parent="1">
          <mxGeometry x="240" y="300" width="400" height="200" as="geometry" />
        </mxCell>
        <mxCell id="zLtoH_G0fbc1IxBOTJKg-2" value="Actor" style="shape=umlActor;verticalLabelPosition=bottom;verticalAlign=top;html=1;outlineConnect=0;" vertex="1" parent="1">
          <mxGeometry x="110" y="370" width="30" height="60" as="geometry" />
        </mxCell>
        <mxCell id="zLtoH_G0fbc1IxBOTJKg-7" style="edgeStyle=orthogonalEdgeStyle;rounded=0;orthogonalLoop=1;jettySize=auto;html=1;" edge="1" parent="1" source="zLtoH_G0fbc1IxBOTJKg-3" target="zLtoH_G0fbc1IxBOTJKg-4">
          <mxGeometry relative="1" as="geometry" />
        </mxCell>
        <mxCell id="zLtoH_G0fbc1IxBOTJKg-3" value="Логин / Пароль" style="rounded=0;whiteSpace=wrap;html=1;" vertex="1" parent="1">
          <mxGeometry x="240" y="350" width="70" height="110" as="geometry" />
        </mxCell>
        <mxCell id="zLtoH_G0fbc1IxBOTJKg-8" style="edgeStyle=orthogonalEdgeStyle;rounded=0;orthogonalLoop=1;jettySize=auto;html=1;entryX=0;entryY=0.5;entryDx=0;entryDy=0;" edge="1" parent="1" source="zLtoH_G0fbc1IxBOTJKg-4" target="zLtoH_G0fbc1IxBOTJKg-5">
          <mxGeometry relative="1" as="geometry" />
        </mxCell>
        <mxCell id="zLtoH_G0fbc1IxBOTJKg-4" value="Бизнес Логика" style="rounded=0;whiteSpace=wrap;html=1;" vertex="1" parent="1">
          <mxGeometry x="405" y="350" width="70" height="110" as="geometry" />
        </mxCell>
        <mxCell id="zLtoH_G0fbc1IxBOTJKg-5" value="База Данных" style="rounded=0;whiteSpace=wrap;html=1;" vertex="1" parent="1">
          <mxGeometry x="570" y="350" width="70" height="110" as="geometry" />
        </mxCell>
        <mxCell id="zLtoH_G0fbc1IxBOTJKg-6" style="edgeStyle=orthogonalEdgeStyle;rounded=0;orthogonalLoop=1;jettySize=auto;html=1;exitX=0.5;exitY=0.5;exitDx=0;exitDy=0;exitPerimeter=0;entryX=0.029;entryY=0.445;entryDx=0;entryDy=0;entryPerimeter=0;" edge="1" parent="1" source="zLtoH_G0fbc1IxBOTJKg-2" target="zLtoH_G0fbc1IxBOTJKg-3">
          <mxGeometry relative="1" as="geometry">
            <Array as="points">
              <mxPoint x="230" y="400" />
            </Array>
          </mxGeometry>
        </mxCell>
      </root>
    </mxGraphModel>
  </diagram>
</mxfile>
